<?xml version="1.0" encoding="utf-8"?>
<!-- Generator: Adobe Illustrator 15.0.0, SVG Export Plug-In . SVG Version: 6.00 Build 0)  -->
<!DOCTYPE svg PUBLIC "-//W3C//DTD SVG 1.1//EN" "http://www.w3.org/Graphics/SVG/1.1/DTD/svg11.dtd">
<svg version="1.1" id="Capa_1" xmlns="http://www.w3.org/2000/svg" xmlns:xlink="http://www.w3.org/1999/xlink" x="0px" y="0px"
	 width="70px" height="70px" viewBox="0 0 70 70" enable-background="new 0 0 70 70" xml:space="preserve">
<g>
	<path fill="#666666" d="M13.08,51.917v3.588h0.324l2.771-3.588h1.247l-3.058,3.707c1.343,0.183,1.859,0.996,2.267,2.087
		c0.312,0.828,0.54,1.571,0.888,2.291h-1.115c-0.3-0.552-0.516-1.271-0.744-1.906c-0.372-1.066-0.875-1.8-2.243-1.8H13.08v3.706
		h-1.043v-8.085H13.08z"/>
	<path fill="#666666" d="M22.726,58.609c0,0.505,0.024,0.996,0.084,1.393h-0.947l-0.084-0.73h-0.036
		c-0.324,0.457-0.947,0.862-1.775,0.862c-1.175,0-1.775-0.825-1.775-1.667c0-1.402,1.247-2.171,3.49-2.158v-0.119
		c0-0.467-0.132-1.346-1.319-1.334c-0.551,0-1.115,0.156-1.523,0.437l-0.24-0.707c0.479-0.3,1.188-0.504,1.919-0.504
		c1.775,0,2.207,1.211,2.207,2.36L22.726,58.609L22.726,58.609z M21.707,57.04c-1.151-0.022-2.459,0.181-2.459,1.308
		c0,0.695,0.456,1.008,0.983,1.008c0.768,0,1.259-0.479,1.427-0.973c0.036-0.119,0.048-0.238,0.048-0.336L21.707,57.04L21.707,57.04
		z"/>
	<path fill="#666666" d="M28.87,54.195v5.807h-1.056v-4.979h-1.991v1.483c0,1.634-0.156,2.726-0.912,3.218
		c-0.288,0.229-0.611,0.356-1.151,0.356l-0.108-0.827c0.204-0.033,0.432-0.12,0.576-0.236c0.54-0.396,0.6-1.211,0.6-2.511v-2.313
		h4.042V54.195z"/>
	<path fill="#666666" d="M31.176,57.291c0.023,1.428,0.924,2.018,1.99,2.018c0.756,0,1.225-0.134,1.607-0.302l0.191,0.755
		c-0.372,0.17-1.02,0.372-1.943,0.372c-1.787,0-2.854-1.188-2.854-2.938s1.031-3.115,2.723-3.115c1.907,0,2.398,1.652,2.398,2.725
		c0,0.219-0.012,0.371-0.036,0.49L31.176,57.291L31.176,57.291z M34.27,56.536c0.014-0.66-0.274-1.704-1.463-1.704
		c-1.078,0-1.535,0.975-1.619,1.704H34.27z"/>
	<path fill="#666666" d="M37.619,54.195v2.341h2.747v-2.341h1.056v5.807h-1.056v-2.627h-2.747v2.627h-1.055v-5.807H37.619z"/>
	<path fill="#666666" d="M47.648,54.195v5.015l0.601,0.015l-0.06,2.612h-0.828l-0.049-1.835h-4.021l-0.063,1.835H42.42l-0.048-2.604
		l0.491-0.021c0.253-0.371,0.443-0.771,0.576-1.188c0.229-0.721,0.336-1.5,0.336-2.313v-1.513h3.873V54.195z M44.699,55.948
		c0,0.778-0.096,1.522-0.301,2.171c-0.119,0.396-0.275,0.756-0.455,1.079h2.675V55h-1.919V55.948z"/>
	<path fill="#666666" d="M53.59,58.609c0,0.505,0.023,0.996,0.084,1.393h-0.947l-0.084-0.73h-0.035
		c-0.319,0.457-0.943,0.862-1.771,0.862c-1.175,0-1.771-0.825-1.771-1.667c0-1.402,1.246-2.171,3.486-2.158v-0.119
		c0-0.467-0.132-1.346-1.316-1.334c-0.553,0-1.114,0.156-1.521,0.437l-0.238-0.707c0.479-0.3,1.188-0.504,1.918-0.504
		c1.774,0,2.207,1.211,2.207,2.36v2.17h-0.01V58.609z M52.57,57.04c-1.151-0.022-2.459,0.181-2.459,1.308
		c0,0.695,0.455,1.008,0.984,1.008c0.768,0,1.258-0.479,1.426-0.973c0.037-0.119,0.049-0.238,0.049-0.336V57.04z"/>
	<path fill="#666666" d="M55.296,56.092c0-0.744-0.024-1.344-0.049-1.896h0.937l0.063,0.996h0.021
		c0.42-0.707,1.114-1.111,2.063-1.111c1.415,0,2.471,1.188,2.471,2.938c0,2.088-1.282,3.116-2.649,3.116
		c-0.77,0-1.438-0.336-1.784-0.909H56.34v3.152h-1.043L55.296,56.092L55.296,56.092z M56.339,57.641
		c0,0.154,0.013,0.301,0.048,0.435c0.192,0.729,0.828,1.233,1.584,1.233c1.114,0,1.764-0.912,1.764-2.244
		c0-1.147-0.608-2.146-1.729-2.146c-0.72,0-1.402,0.504-1.595,1.296c-0.036,0.133-0.072,0.288-0.072,0.42V57.641z"/>
</g>
<path fill="#0AA9C5" d="M35,10c-9.666,0-17.5,7.834-17.5,17.5S25.334,45,35,45s17.5-7.834,17.5-17.5S44.666,10,35,10z
	 M30.441,33.051H26.08V28.69h4.361V33.051z M37.182,33.051h-4.361V28.69h4.361V33.051z M37.182,26.31h-4.36v-4.36h4.36V26.31z
	 M43.92,33.051h-4.359V28.69h4.359V33.051z M43.922,26.31h-4.361v-4.36h4.361V26.31z"/>
<rect y="60" fill="none" width="70" height="10"/>
<rect fill="none" width="70" height="10"/>
</svg>
