<?xml version="1.0" encoding="utf-8"?>
<!-- Generator: Adobe Illustrator 15.0.0, SVG Export Plug-In . SVG Version: 6.00 Build 0)  -->
<!DOCTYPE svg PUBLIC "-//W3C//DTD SVG 1.1//EN" "http://www.w3.org/Graphics/SVG/1.1/DTD/svg11.dtd">
<svg version="1.1" id="Capa_1" xmlns="http://www.w3.org/2000/svg" xmlns:xlink="http://www.w3.org/1999/xlink" x="0px" y="0px"
	 width="70px" height="70px" viewBox="0 0 70 70" enable-background="new 0 0 70 70" xml:space="preserve">
<g id="Capa_1_147_">
</g>
<g>
	<path fill="#666666" d="M21.643,59.616C21.271,59.809,20.492,60,19.508,60c-2.279,0-3.982-1.438-3.982-4.104
		c0-2.543,1.715-4.244,4.222-4.244c0.996,0,1.643,0.216,1.919,0.355l-0.264,0.854c-0.384-0.19-0.948-0.338-1.619-0.338
		c-1.895,0-3.154,1.213-3.154,3.334c0,1.99,1.139,3.25,3.094,3.25c0.648,0,1.295-0.133,1.715-0.336L21.643,59.616z"/>
	<path fill="#666666" d="M23.95,54.063v2.34h2.747v-2.34h1.055v5.81h-1.055v-2.627H23.95v2.627h-1.056v-5.81H23.95z"/>
	<path fill="#666666" d="M30.454,54.063v2.445c0,0.912-0.024,1.5-0.072,2.327l0.036,0.013c0.36-0.707,0.552-1.115,0.946-1.787
		l1.811-2.998h1.235v5.81h-1.008v-2.46c0-0.947,0.023-1.438,0.071-2.391h-0.022c-0.385,0.756-0.625,1.228-0.973,1.813
		c-0.551,0.896-1.199,2.019-1.81,3.034h-1.224v-5.809h1.01V54.063z"/>
	<path fill="#666666" d="M36.2,54.063h1.297l1.043,2.931c0.155,0.434,0.396,1.14,0.526,1.596h0.021
		c0.136-0.438,0.456-1.354,0.695-1.985l0.924-2.531h1.312l0.404,5.805h-1.007L41.284,57.1c-0.022-0.636-0.071-1.367-0.097-2.074
		h-0.035c-0.155,0.527-0.323,0.982-0.646,1.889l-1.113,2.926h-0.758l-1.029-2.878c-0.188-0.54-0.439-1.38-0.588-1.919h-0.047
		c-0.021,0.688-0.05,1.451-0.086,2.087l-0.154,2.74h-0.977L36.2,54.063z"/>
	<path fill="#666666" d="M44.841,54.063v2.521h0.252l2.171-2.521h1.283l-2.52,2.613c0.937,0.108,1.498,0.731,1.955,1.775
		c0.156,0.385,0.349,0.947,0.607,1.416h-1.1c-0.156-0.252-0.35-0.708-0.539-1.188c-0.396-0.938-0.938-1.367-1.907-1.367H44.84v2.555
		h-1.043v-5.805H44.841L44.841,54.063z"/>
	<path fill="#666666" d="M50.518,54.063v2.445c0,0.912-0.021,1.5-0.066,2.327l0.031,0.013c0.358-0.707,0.555-1.115,0.947-1.787
		l1.813-2.998h1.231v5.81h-1.008v-2.46c0-0.947,0.023-1.438,0.07-2.391h-0.021c-0.385,0.756-0.623,1.228-0.973,1.813
		c-0.553,0.896-1.197,2.019-1.813,3.034H49.51v-5.809h1.008V54.063z"/>
</g>
<rect fill="none" width="70" height="70"/>
<path fill="#0AA9C5" d="M35.042,10c-9.649,0-17.5,7.852-17.5,17.5c0,9.648,7.851,17.5,17.5,17.5c9.647,0,17.5-7.852,17.5-17.5
	C52.542,17.851,44.691,10,35.042,10z M29.725,19.967c1.468,0,2.659,1.19,2.659,2.657c0,1.47-1.191,2.66-2.659,2.66
	c-1.467,0-2.658-1.19-2.658-2.66C27.067,21.158,28.258,19.967,29.725,19.967z M24.408,35.033l5.317-7.09l5.317,3.545l5.315-7.09
	l5.314,10.635H24.408z"/>
<rect y="60" fill="none" width="70" height="10"/>
<rect x="0.042" fill="none" width="70" height="10"/>
</svg>
