<?xml version="1.0" encoding="utf-8"?>
<!-- Generator: Adobe Illustrator 15.0.0, SVG Export Plug-In . SVG Version: 6.00 Build 0)  -->
<!DOCTYPE svg PUBLIC "-//W3C//DTD SVG 1.1//EN" "http://www.w3.org/Graphics/SVG/1.1/DTD/svg11.dtd">
<svg version="1.1" id="Capa_1" xmlns="http://www.w3.org/2000/svg" xmlns:xlink="http://www.w3.org/1999/xlink" x="0px" y="0px"
	 width="70px" height="70px" viewBox="0 0 70 70" enable-background="new 0 0 70 70" xml:space="preserve">
<g>
	<path fill="#666666" d="M2.733,51.909v3.405c0,1.271-0.024,2.34-0.096,3.418l0.036,0.014c0.396-0.84,0.899-1.715,1.487-2.676
		l2.614-4.161h1.043v8.084H6.834v-3.442c0-1.307,0.012-2.267,0.096-3.285l-0.036-0.013c-0.396,0.888-0.947,1.823-1.499,2.711
		l-2.531,4.029H1.749v-8.084H2.733z"/>
	<path fill="#666666" d="M10.629,54.188v2.34h2.747v-2.34h1.055v5.812h-1.055V57.37h-2.747v2.627H9.573v-5.81H10.629L10.629,54.188z
		"/>
	<path fill="#666666" d="M19.628,51.502l-0.012,2.578c1.691,0.132,2.915,1.199,2.915,2.999c0,1.905-1.283,2.914-2.915,3.022
		l0.012,2.267h-0.984l0.012-2.255c-1.679-0.108-2.915-1.163-2.915-2.975c0-1.908,1.284-2.914,2.915-3.053l-0.012-2.59L19.628,51.502
		L19.628,51.502z M18.656,54.813c-1.164,0.146-1.871,1.104-1.871,2.309c0,1.188,0.72,2.123,1.871,2.27V54.813z M19.616,59.395
		c1.164-0.168,1.871-1.127,1.871-2.313c0-1.199-0.708-2.109-1.871-2.27V59.395z"/>
	<path fill="#666666" d="M29.107,57.043c0,2.146-1.499,3.082-2.891,3.082c-1.56,0-2.782-1.15-2.782-2.986
		c0-1.931,1.283-3.07,2.878-3.07C27.979,54.068,29.107,55.279,29.107,57.043z M24.513,57.104c0,1.271,0.72,2.23,1.751,2.23
		c1.008,0,1.763-0.948,1.763-2.255c0-0.983-0.491-2.22-1.738-2.22C25.053,54.859,24.513,56.012,24.513,57.104z"/>
	<path fill="#666666" d="M30.442,56.083c0-0.743-0.024-1.343-0.049-1.896h0.936l0.061,0.996h0.023
		c0.42-0.707,1.115-1.115,2.063-1.115c1.415,0,2.471,1.188,2.471,2.938c0,2.087-1.283,3.118-2.651,3.118
		c-0.768,0-1.438-0.336-1.786-0.911h-0.024v3.154h-1.043L30.442,56.083L30.442,56.083z M31.485,57.631
		c0,0.155,0.012,0.301,0.048,0.432c0.192,0.731,0.828,1.235,1.583,1.235c1.115,0,1.764-0.912,1.764-2.243
		c0-1.15-0.612-2.146-1.728-2.146c-0.72,0-1.403,0.504-1.595,1.295c-0.036,0.132-0.072,0.288-0.072,0.42V57.631z"/>
	<path fill="#666666" d="M37.341,54.188h1.296l1.043,2.933c0.156,0.433,0.396,1.14,0.527,1.596h0.023
		c0.133-0.438,0.457-1.354,0.689-1.985l0.93-2.529h1.309L43.564,60h-1.006l-0.14-2.771c-0.021-0.636-0.065-1.367-0.096-2.074H42.29
		c-0.155,0.527-0.323,0.982-0.646,1.89l-1.115,2.927h-0.756l-1.03-2.879c-0.191-0.54-0.443-1.38-0.589-1.919h-0.049
		c-0.021,0.688-0.047,1.45-0.084,2.087L37.868,60h-0.974L37.341,54.188z"/>
	<path fill="#666666" d="M49.016,58.602c0,0.504,0.023,0.996,0.084,1.396h-0.947l-0.084-0.729h-0.031
		c-0.322,0.455-0.945,0.857-1.771,0.857c-1.179,0-1.772-0.827-1.772-1.667c0-1.397,1.248-2.171,3.489-2.159v-0.115
		c0-0.473-0.133-1.349-1.317-1.332c-0.554,0-1.115,0.151-1.522,0.433L44.9,54.58c0.479-0.301,1.188-0.505,1.92-0.505
		c1.775,0,2.207,1.211,2.207,2.362v2.17H49.02v-0.004h-0.004V58.602z M47.996,57.031c-1.15-0.024-2.457,0.18-2.457,1.307
		c0,0.696,0.453,1.008,0.982,1.008c0.768,0,1.258-0.479,1.426-0.972c0.037-0.12,0.049-0.24,0.049-0.336V57.031z"/>
	<path fill="#666666" d="M51.74,54.188v4.979h2.676v-4.979h1.043v5.02l0.6,0.014l-0.061,2.613h-0.826l-0.049-1.835h-4.438v-5.812
		H51.74z"/>
	<path fill="#666666" d="M58.293,54.188v2.446c0,0.912-0.023,1.499-0.07,2.327l0.035,0.012c0.359-0.707,0.551-1.115,0.947-1.787
		l1.811-2.998h1.236v5.812h-1.01V57.54c0-0.947,0.025-1.438,0.072-2.394h-0.021c-0.385,0.756-0.625,1.229-0.973,1.813
		c-0.553,0.897-1.199,2.017-1.813,3.034h-1.223v-5.807H58.293L58.293,54.188z"/>
	<path fill="#666666" d="M68.252,59.993h-1.045v-2.435h-0.779c-0.443,0-0.742,0.113-0.959,0.336
		c-0.443,0.348-0.602,1.056-0.828,1.619c-0.072,0.18-0.154,0.336-0.238,0.479h-1.129c0.139-0.191,0.252-0.408,0.361-0.659
		c0.25-0.563,0.395-1.319,0.91-1.752c0.18-0.155,0.396-0.274,0.66-0.335v-0.023c-0.756-0.084-1.535-0.553-1.535-1.451
		c0-0.601,0.322-1.008,0.768-1.261c0.48-0.286,1.188-0.396,1.955-0.396c0.688,0,1.355,0.048,1.859,0.119V59.993L68.252,59.993z
		 M67.207,54.884c-0.264-0.036-0.502-0.06-0.875-0.06c-0.707,0-1.57,0.203-1.57,1.007c0,0.744,0.924,1.021,1.547,1.021
		c0.443,0,0.66,0,0.898,0V54.884z"/>
</g>
<path fill="#0AA9C5" d="M35,10c-9.665,0-17.5,7.835-17.5,17.5S25.335,45,35,45c9.664,0,17.5-7.835,17.5-17.5S44.664,10,35,10z
	 M33.889,33.256h-7.106v-2.5h7.106V33.256z M43.296,28.256H26.704v-2.5h16.592V28.256L43.296,28.256z M43.296,23.358H26.704v-2.5
	h16.592V23.358L43.296,23.358z"/>
<rect y="60" fill="none" width="70" height="10"/>
<rect fill="none" width="70" height="10"/>
</svg>
