<?xml version="1.0" encoding="utf-8"?>
<!-- Generator: Adobe Illustrator 15.0.0, SVG Export Plug-In . SVG Version: 6.00 Build 0)  -->
<!DOCTYPE svg PUBLIC "-//W3C//DTD SVG 1.1//EN" "http://www.w3.org/Graphics/SVG/1.1/DTD/svg11.dtd">
<svg version="1.1" id="Capa_1" xmlns="http://www.w3.org/2000/svg" xmlns:xlink="http://www.w3.org/1999/xlink" x="0px" y="0px"
	 width="70px" height="70px" viewBox="0 0 70 70" enable-background="new 0 0 70 70" xml:space="preserve">
<rect fill="none" width="70" height="70"/>
<g>
	<path fill="#666666" d="M22.016,51.885v3.588h0.324l2.771-3.588h1.247L23.3,55.59c1.343,0.182,1.859,0.996,2.267,2.088
		c0.312,0.828,0.54,1.57,0.888,2.291H25.34c-0.3-0.553-0.516-1.271-0.744-1.906c-0.372-1.063-0.875-1.799-2.243-1.799h-0.335v3.705
		h-1.043v-8.084H22.016z"/>
	<path fill="#666666" d="M31.662,58.578c0,0.504,0.023,0.995,0.084,1.393h-0.947l-0.085-0.729h-0.036
		c-0.324,0.451-0.947,0.859-1.775,0.859c-1.175,0-1.775-0.828-1.775-1.668c0-1.398,1.247-2.17,3.49-2.158V56.16
		c0-0.473-0.132-1.348-1.319-1.332c-0.551,0-1.115,0.152-1.523,0.433l-0.24-0.706c0.479-0.302,1.188-0.505,1.919-0.505
		c1.775,0,2.207,1.211,2.207,2.361V58.578L31.662,58.578z M30.643,57.006c-1.151-0.023-2.459,0.182-2.459,1.309
		c0,0.695,0.456,1.012,0.983,1.012c0.768,0,1.259-0.479,1.427-0.977c0.036-0.119,0.048-0.24,0.048-0.336L30.643,57.006
		L30.643,57.006z"/>
	<path fill="#666666" d="M33.369,56.059c0-0.742-0.024-1.344-0.05-1.895h0.937l0.061,0.994h0.023
		c0.42-0.707,1.115-1.115,2.063-1.115c1.416,0,2.477,1.188,2.477,2.938c0,2.088-1.279,3.119-2.646,3.119
		c-0.771,0-1.438-0.336-1.791-0.912h-0.024v3.152h-1.043v-6.281H33.369z M34.412,57.605c0,0.151,0.012,0.301,0.047,0.434
		c0.192,0.73,0.828,1.234,1.584,1.234c1.115,0,1.764-0.912,1.764-2.244c0-1.15-0.611-2.146-1.729-2.146
		c-0.72,0-1.402,0.506-1.595,1.297c-0.036,0.131-0.071,0.285-0.071,0.42V57.605z"/>
	<path fill="#666666" d="M44.021,54.164v0.828H42.21v4.979h-1.058v-4.979H39.34v-0.828H44.021z"/>
	<path fill="#666666" d="M48.941,58.578c0,0.504,0.021,0.995,0.084,1.393h-0.947l-0.084-0.729h-0.035
		c-0.322,0.451-0.947,0.859-1.775,0.859c-1.175,0-1.771-0.828-1.771-1.668c0-1.398,1.246-2.17,3.487-2.158V56.16
		c0-0.473-0.133-1.348-1.317-1.332c-0.554,0-1.115,0.152-1.521,0.433l-0.24-0.706c0.479-0.302,1.188-0.505,1.92-0.505
		c1.775,0,2.207,1.211,2.207,2.361v2.172L48.941,58.578L48.941,58.578z M47.922,57.006c-1.15-0.023-2.459,0.182-2.459,1.309
		c0,0.695,0.455,1.012,0.984,1.012c0.768,0,1.258-0.479,1.426-0.977c0.037-0.119,0.049-0.24,0.049-0.336V57.006z"/>
</g>
<path fill="#0AA9C5" d="M35,10.001c-9.649,0-17.5,7.851-17.5,17.5c0,9.651,7.851,17.5,17.5,17.5c9.65,0,17.5-7.849,17.5-17.5
	C52.5,17.852,44.65,10.001,35,10.001z M35,37.093c0,0-7.144-8.095-7.144-12.04c0-3.946,3.199-7.144,7.144-7.144
	c3.945,0,7.145,3.199,7.145,7.144C42.145,28.998,35,37.093,35,37.093z"/>
<circle fill="#0AA9C5" cx="35" cy="25.053" r="4.932"/>
<rect y="60" fill="none" width="70" height="10"/>
<rect fill="none" width="70" height="10"/>
</svg>
