<?xml version="1.0" encoding="utf-8"?>
<!-- Generator: Adobe Illustrator 15.0.0, SVG Export Plug-In . SVG Version: 6.00 Build 0)  -->
<!DOCTYPE svg PUBLIC "-//W3C//DTD SVG 1.1//EN" "http://www.w3.org/Graphics/SVG/1.1/DTD/svg11.dtd">
<svg version="1.1" id="Capa_1" xmlns="http://www.w3.org/2000/svg" xmlns:xlink="http://www.w3.org/1999/xlink" x="0px" y="0px"
	 width="70px" height="70px" viewBox="0 0 70 70" enable-background="new 0 0 70 70" xml:space="preserve">
<g>
	<path fill="#666666" d="M7.982,52.252c0.552-0.357,1.248-0.609,2.135-0.609c1.403,0,2.375,0.729,2.375,1.979
		c0,0.996-0.732,1.764-1.667,1.979v0.021c1.127,0.12,1.967,0.86,1.979,2.024c0,1.682-1.463,2.354-2.938,2.354
		c-0.731,0-1.487-0.152-2.111-0.523l0.276-0.813c0.444,0.252,1.151,0.488,1.823,0.488c1.188,0,1.847-0.646,1.847-1.532
		c0-1.212-1.163-1.562-2.194-1.562h-0.48v-0.793h0.468c1.067,0,1.907-0.658,1.907-1.486c0-0.824-0.587-1.28-1.451-1.28
		c-0.624,0-1.247,0.252-1.691,0.524L7.982,52.252z"/>
	<path fill="#666666" d="M18.239,58.477c0,0.504,0.024,0.996,0.084,1.396h-0.947l-0.084-0.729h-0.036
		C16.932,59.593,16.309,60,15.481,60c-1.175,0-1.775-0.827-1.775-1.667c0-1.401,1.247-2.171,3.49-2.158v-0.118
		c0-0.47-0.132-1.346-1.319-1.332c-0.551,0-1.115,0.154-1.523,0.437l-0.24-0.707c0.479-0.306,1.188-0.509,1.919-0.509
		c1.775,0,2.207,1.216,2.207,2.361L18.239,58.477L18.239,58.477z M17.22,56.906c-1.151-0.024-2.459,0.18-2.459,1.308
		c0,0.695,0.456,1.009,0.983,1.009c0.768,0,1.259-0.479,1.427-0.974c0.036-0.12,0.048-0.24,0.048-0.336L17.22,56.906L17.22,56.906z"
		/>
	<path fill="#666666" d="M24.719,54.063v5.811h-1.056v-4.979h-2.698v4.979h-1.056v-5.809h4.81V54.063z"/>
	<path fill="#666666" d="M30.515,58.477c0,0.504,0.024,0.996,0.084,1.396h-0.947l-0.084-0.729h-0.035
		C29.209,59.593,28.585,60,27.757,60c-1.175,0-1.774-0.827-1.774-1.667c0-1.401,1.247-2.171,3.49-2.158v-0.118
		c0-0.47-0.132-1.346-1.319-1.332c-0.552,0-1.115,0.154-1.523,0.437l-0.24-0.707c0.48-0.306,1.188-0.509,1.919-0.509
		c1.775,0,2.207,1.216,2.207,2.361v2.17H30.515z M29.495,56.906c-1.151-0.024-2.458,0.18-2.458,1.308
		c0,0.695,0.455,1.009,0.983,1.009c0.768,0,1.259-0.479,1.426-0.974c0.037-0.12,0.049-0.24,0.049-0.336V56.906z"/>
	<path fill="#666666" d="M32.7,56.498h0.505c0.887,0,1.485-0.407,1.485-0.946c0-0.517-0.468-0.853-1.127-0.853
		c-0.468,0-0.994,0.168-1.402,0.42l-0.263-0.646c0.587-0.354,1.257-0.527,1.929-0.527c0.889,0,1.968,0.396,1.968,1.522
		c0,0.72-0.66,1.188-1.308,1.318v0.022c0.863,0.084,1.583,0.601,1.583,1.446c0,1.248-1.283,1.729-2.507,1.729
		c-0.672,0-1.367-0.183-1.882-0.469l0.275-0.724c0.42,0.24,0.996,0.408,1.535,0.408c0.875,0,1.428-0.421,1.428-0.996
		c0-0.777-0.814-0.994-1.691-0.994h-0.516L32.7,56.498z"/>
	<path fill="#666666" d="M38.363,54.063v2.445c0,0.912-0.023,1.5-0.07,2.327l0.033,0.013c0.361-0.707,0.553-1.115,0.949-1.787
		l1.811-2.998h1.234v5.811h-1.006v-2.46c0-0.947,0.021-1.438,0.064-2.392h-0.021c-0.383,0.756-0.623,1.229-0.971,1.813
		c-0.557,0.896-1.199,2.019-1.813,3.034H37.35v-5.809h1.01v0.002H38.363L38.363,54.063z"/>
	<path fill="#666666" d="M47.543,54.063v1.955c0,0.742,0.275,1.234,1.199,1.234c0.455,0,0.936-0.168,1.246-0.396v-2.793h1.045v5.877
		h-1.045V57.6h-0.012c-0.396,0.252-1.031,0.438-1.582,0.438c-1.098,0-1.908-0.563-1.908-1.889v-2.086H47.543L47.543,54.063z"/>
	<path fill="#666666" d="M56.842,58.477c0,0.504,0.023,0.996,0.084,1.396h-0.947l-0.084-0.729h-0.037
		C55.533,59.593,54.91,60,54.084,60c-1.176,0-1.775-0.827-1.775-1.667c0-1.401,1.248-2.171,3.49-2.158v-0.118
		c0-0.47-0.131-1.346-1.318-1.332c-0.553,0-1.109,0.154-1.521,0.437l-0.239-0.707c0.479-0.306,1.188-0.509,1.922-0.509
		c1.771,0,2.207,1.216,2.207,2.361v2.17H56.842z M55.82,56.906c-1.15-0.024-2.457,0.18-2.457,1.308c0,0.695,0.455,1.009,0.982,1.009
		c0.768,0,1.26-0.479,1.428-0.974c0.035-0.12,0.047-0.24,0.047-0.336V56.906z"/>
	<path fill="#666666" d="M62.686,59.664C62.41,59.796,61.799,60,61.018,60c-1.75,0-2.889-1.188-2.889-2.962
		c0-1.787,1.223-3.095,3.117-3.095c0.623,0,1.176,0.154,1.463,0.312l-0.24,0.806c-0.25-0.134-0.646-0.271-1.223-0.271
		c-1.33,0-2.051,0.989-2.051,2.188c0,1.35,0.863,2.172,2.016,2.172c0.6,0,0.994-0.146,1.295-0.271L62.686,59.664z"/>
</g>
<rect x="0.232" fill="none" width="70" height="70"/>
<path fill="#0AA9C5" d="M35,10c-9.664,0-17.499,7.836-17.499,17.5S25.336,45,35,45s17.5-7.836,17.5-17.5
	C52.502,17.836,44.666,10,35,10z M43.75,35.279c0,0.584-0.387,0.971-0.973,0.971c-9.139,0-16.527-7.388-16.527-16.526
	c0-0.583,0.388-0.973,0.972-0.973h3.403c0.583,0,0.972,0.39,0.972,0.973c0,1.166,0.194,2.333,0.583,3.5
	c0.098,0.292,0,0.682-0.195,0.973l-2.236,2.139c1.361,2.723,3.694,4.958,6.417,6.417l2.139-2.14c0.291-0.292,0.682-0.39,0.973-0.194
	c1.068,0.389,2.234,0.584,3.5,0.584c0.586,0,0.974,0.388,0.974,0.972L43.75,35.279L43.75,35.279z"/>
<rect x="0.232" y="60" fill="none" width="70" height="10"/>
<rect fill="none" width="70" height="10"/>
</svg>
